<svg width="375" height="76" viewBox="0 0 375 76" fill="none" xmlns="http://www.w3.org/2000/svg">
<path d="M0 0H375V76H0V0Z" fill="#333333"/>
<mask id="mask0_3217_2" style="mask-type:alpha" maskUnits="userSpaceOnUse" x="0" y="0" width="375" height="76">
<rect width="375" height="76" fill="#C4C4C4"/>
</mask>
<g mask="url(#mask0_3217_2)">
<g opacity="0.4">
<path fill-rule="evenodd" clip-rule="evenodd" d="M319.35 49.7373C318.837 49.201 317.942 48.8682 317.014 48.8682H305.334C306.091 49.8236 306.538 50.9701 306.538 52.1598V88.9347H320.601V52.1598C320.601 51.34 320.199 50.5201 319.469 49.8483L319.35 49.7373Z" fill="url(#paint0_linear_3217_2)"/>
<path fill-rule="evenodd" clip-rule="evenodd" d="M302.35 49.7373C301.837 49.201 300.942 48.8682 300.014 48.8682H288.334C289.091 49.8236 289.538 50.9701 289.538 52.1598V88.9347H303.601V52.1598C303.601 51.34 303.199 50.5201 302.469 49.8483L302.35 49.7373Z" fill="url(#paint1_linear_3217_2)"/>
<path fill-rule="evenodd" clip-rule="evenodd" d="M334.544 0H321.706C321.423 0 321.134 0.110954 320.949 0.332861C317.863 3.93269 291.37 34.7285 285.698 41.3548C284.968 42.2856 284.797 43.5801 285.251 44.6465C285.843 45.7313 287.027 46.4032 288.357 46.4032H300.004C299.852 46.1998 299.721 45.9841 299.596 45.7622L299.543 45.6635L299.497 45.5526C298.701 43.6787 299.004 41.5089 300.274 39.8878L300.339 39.8138C303.709 35.875 314.52 23.3002 323.206 13.1973C328.128 7.47087 332.458 2.43481 334.544 0Z" fill="url(#paint2_linear_3217_2)"/>
<path fill-rule="evenodd" clip-rule="evenodd" d="M317.544 0H304.706C304.423 0 304.134 0.110954 303.949 0.332861C300.863 3.93269 274.37 34.7285 268.698 41.3548C267.968 42.2856 267.797 43.5801 268.251 44.6465C268.843 45.7313 270.027 46.4032 271.357 46.4032H283.004C282.852 46.1998 282.721 45.9841 282.596 45.7622L282.543 45.6635L282.497 45.5526C281.701 43.6787 282.004 41.5089 283.274 39.8878L283.339 39.8138C286.709 35.875 297.52 23.3002 306.206 13.1973C311.128 7.47087 315.458 2.43481 317.544 0Z" fill="url(#paint3_linear_3217_2)"/>
<path fill-rule="evenodd" clip-rule="evenodd" d="M335.387 49.7923L335.328 49.7368C334.814 49.2005 333.919 48.8677 332.992 48.8677H322.035C322.035 48.8677 322.035 48.8738 322.042 48.8738C322.127 48.9848 322.206 49.0957 322.285 49.2067C322.463 49.4718 322.621 49.7491 322.752 50.0389C322.812 50.156 322.858 50.2792 322.91 50.4025C322.917 50.4272 322.924 50.4518 322.937 50.4827C323.029 50.7416 323.101 51.0066 323.154 51.2778C323.18 51.4319 323.2 51.5922 323.213 51.7525C323.226 51.8881 323.233 52.0237 323.233 52.1593V88.9342H336.578V52.1593C336.578 51.3395 336.176 50.5197 335.446 49.8478L335.387 49.7923Z" fill="url(#paint4_linear_3217_2)"/>
<path fill-rule="evenodd" clip-rule="evenodd" d="M315.573 45.7622L315.52 45.6635L315.474 45.5526C314.678 43.6787 314.98 41.5089 316.25 39.8878L316.283 39.8508L316.316 39.8138C319.685 35.875 330.497 23.3002 339.183 13.1973C340.302 11.8967 341.388 10.6269 342.427 9.42489C345.961 5.31344 348.909 1.88005 350.521 0H338.4C338.111 0 337.828 0.110954 337.637 0.332861C334.551 3.93269 308.064 34.7285 302.392 41.3548C301.655 42.2856 301.491 43.5801 301.945 44.6465C302.537 45.7313 303.721 46.4032 305.051 46.4032H315.981C315.829 46.1998 315.698 45.9841 315.573 45.7622Z" fill="url(#paint5_linear_3217_2)"/>
<path fill-rule="evenodd" clip-rule="evenodd" d="M374.125 0.0246563V0H354.378C354.088 0 353.805 0.110954 353.614 0.332861C352.443 1.69512 347.916 6.96541 342.428 13.3452C333.445 23.7995 321.89 37.2372 318.37 41.3548C317.633 42.2856 317.468 43.5801 317.922 44.6465C318.514 45.7313 319.699 46.4032 321.028 46.4032H332.991C334.63 46.4032 336.242 47.0011 337.288 48.0922C338.473 49.1771 339.21 50.6256 339.21 52.1605V88.9354H375.099V0.936941C375.099 0.425322 374.672 0.0246563 374.125 0.0246563Z" fill="url(#paint6_linear_3217_2)"/>
</g>
<g opacity="0.4">
<path fill-rule="evenodd" clip-rule="evenodd" d="M34.5663 54.4213L29.3278 44.6333L24.1172 54.4213H34.5663Z" fill="url(#paint7_linear_3217_2)" fill-opacity="0.4"/>
<path fill-rule="evenodd" clip-rule="evenodd" d="M39.776 79.009L18.46 59.0415V79.009H39.776Z" fill="url(#paint8_linear_3217_2)" fill-opacity="0.4"/>
<path fill-rule="evenodd" clip-rule="evenodd" d="M60.8126 79.009L39.5244 59.0415V79.009H60.8126Z" fill="url(#paint9_linear_3217_2)" fill-opacity="0.4"/>
<path fill-rule="evenodd" clip-rule="evenodd" d="M18.7107 79.0076C18.7107 68.541 14.2802 58.5181 6.36682 51.1053C-1.51873 43.7187 -12.2464 39.5425 -23.4199 39.5425V78.9815H18.7107V79.0076Z" fill="url(#paint10_linear_3217_2)" fill-opacity="0.4"/>
<path fill-rule="evenodd" clip-rule="evenodd" d="M60.8135 79.0076C71.987 79.0076 82.6868 74.8576 90.6003 67.4448C98.4858 60.0581 102.944 50.0091 102.944 39.5425H60.8413V79.0076H60.8135Z" fill="url(#paint11_linear_3217_2)" fill-opacity="0.4"/>
<path fill-rule="evenodd" clip-rule="evenodd" d="M-4.66737 0.106445C-4.77883 0.106445 -4.89028 0.158648 -4.97387 0.236952C-6.19989 1.64642 -16.6768 13.8357 -18.9338 16.472C-19.2124 16.8374 -19.296 17.3594 -19.101 17.777C-18.8781 18.1946 -18.4044 18.4817 -17.875 18.4817H-13.1381C-12.4972 18.4817 -11.8563 18.7167 -11.4383 19.1604C-10.9646 19.578 -10.686 20.1783 -10.686 20.7787V39.5716H-23.4199V0.13254H-4.66737V0.106445ZM18.7107 0.106445C18.5992 0.106445 18.4877 0.158648 18.4042 0.236952C17.1781 1.64642 6.70122 13.8357 4.44422 16.472C4.16558 16.8374 4.08196 17.3594 4.27701 17.777C4.49992 18.1946 4.97362 18.4817 5.50304 18.4817H10.2399C10.8808 18.4817 11.5217 18.7167 11.9396 19.1604C12.4133 19.578 12.692 20.1783 12.692 20.7787V39.5716H0.0416745V0.497965C0.0416745 0.289154 -0.125517 0.13254 -0.348431 0.13254H18.7107V0.106445Z" fill="url(#paint12_linear_3217_2)" fill-opacity="0.4"/>
<path fill-rule="evenodd" clip-rule="evenodd" d="M60.1723 0.106445C60.5067 0.106445 60.7853 0.367445 60.7853 0.68066V39.5455H37.8531V33.4378C37.8531 32.472 37.3794 31.5324 36.6271 30.8276C35.9583 30.149 34.9273 29.7575 33.8964 29.7575H26.2616C25.4257 29.7575 24.6455 29.3137 24.2832 28.6351C24.0046 27.9565 24.0882 27.1212 24.5619 26.5209C28.1842 22.2925 45.1256 2.61215 47.0761 0.315236C47.1876 0.18473 47.3826 0.106445 47.5777 0.106445H60.1723V0.106445Z" fill="url(#paint13_linear_3217_2)" fill-opacity="0.4"/>
<path fill-rule="evenodd" clip-rule="evenodd" d="M72.8508 1.14846H78.953L90.1266 14.1208C93.526 18.0882 96.9533 22.0556 100.353 26.023L102.303 28.3199C102.554 28.6331 102.61 29.0768 102.47 29.4422C102.247 29.7815 101.857 29.9904 101.412 29.9904H95.8944C95.9223 29.9382 95.9502 29.9121 95.978 29.8599C96.2845 29.129 96.1731 28.2938 95.6715 27.6674C92.1328 23.5956 76.7239 5.69009 72.8508 1.14846ZM65.3275 1.14846H71.4297L82.6033 14.1208C86.0027 18.0882 89.43 22.0556 92.8294 26.023L94.7799 28.3199C95.0306 28.6331 95.0864 29.0768 94.947 29.4422C94.7241 29.7815 94.3341 29.9904 93.8882 29.9904H88.3711C88.399 29.9382 88.4269 29.9121 88.4547 29.8599C88.7612 29.129 88.6497 28.2938 88.1482 27.6674C84.6094 23.5956 69.2006 5.69009 65.3275 1.14846ZM60.8135 1.14846H63.9064L75.0799 14.1208C78.4794 18.0882 81.9066 22.0556 85.3061 26.023L87.2565 28.3199C87.5073 28.6331 87.563 29.0768 87.4237 29.4422C87.2008 29.7815 86.8107 29.9904 86.3649 29.9904H80.8478C80.8757 29.9382 80.9035 29.9121 80.9314 29.8599C81.2379 29.129 81.1264 28.2938 80.6249 27.6674C77.727 24.3003 66.7764 11.5628 60.8413 4.64601V6.3165L67.5566 14.1208C70.956 18.0882 74.3833 22.0556 77.7827 26.023L79.7332 28.3199C79.984 28.6331 80.0397 29.0768 79.9004 29.4422C79.6775 29.7815 79.2874 29.9904 78.8416 29.9904H73.3245C73.3523 29.9382 73.3802 29.9121 73.4081 29.8599C73.7146 29.129 73.6031 28.2938 73.1016 27.6674C71.2347 25.4748 65.9405 19.3149 60.8413 13.3899V15.0604C63.99 18.7146 67.1386 22.3688 70.2594 26.023L72.2099 28.3199C72.4607 28.6331 72.5164 29.0768 72.3771 29.4422C72.1542 29.7815 71.7641 29.9904 71.3183 29.9904H65.8012C65.829 29.9382 65.8569 29.9121 65.8848 29.8599C66.1913 29.129 66.0798 28.2938 65.5782 27.6674C64.6587 26.5972 62.959 24.5874 60.8413 22.1339V23.8044C61.4822 24.5352 62.0952 25.266 62.7361 26.023L64.6866 28.3199C64.9374 28.6331 64.9931 29.0768 64.8538 29.4422C64.6309 29.7815 64.2408 29.9904 63.795 29.9904H60.8135V31.8436C61.4822 31.3215 62.4017 31.0344 63.3212 31.0344H67.6402C67.473 31.1649 67.3337 31.2954 67.1944 31.4259C66.1913 32.3395 65.6061 33.5662 65.6061 34.8713V39.5434H66.7207V34.8713C66.7207 33.8534 67.2222 32.8876 68.0024 32.1568C68.699 31.4259 69.7857 31.0344 70.8446 31.0344H75.1635C74.9963 31.1649 74.857 31.2954 74.7177 31.4259C73.7146 32.3395 73.1294 33.5662 73.1294 34.8713V39.5434H74.244V34.8713C74.244 33.8534 74.7456 32.8876 75.5258 32.1568C76.2224 31.4259 77.309 31.0344 78.3679 31.0344H82.6868C82.5196 31.1649 82.3803 31.2954 82.241 31.4259C81.2379 32.3395 80.6528 33.5662 80.6528 34.8713V39.5434H81.7673V34.8713C81.7673 33.8534 82.2689 32.8876 83.0491 32.1568C83.7457 31.4259 84.8324 31.0344 85.8912 31.0344H90.2101C90.043 31.1649 89.9036 31.2954 89.7643 31.4259C88.7612 32.3395 88.1761 33.5662 88.1761 34.8713V39.5434H89.2906V34.8713C89.2906 33.8534 89.7922 32.8876 90.5724 32.1568C91.269 31.4259 92.3557 31.0344 93.4145 31.0344H97.7335C97.5663 31.1649 97.427 31.2954 97.2876 31.4259C96.2845 32.3395 95.6994 33.5662 95.6994 34.8713V39.5434H96.814V34.8713C96.814 33.8534 97.3155 32.8876 98.0957 32.1568C98.7923 31.4259 99.879 31.0344 100.938 31.0344H102.916V27.3802C98.9873 22.7864 84.1636 5.55955 80.3741 1.12234H86.4763L97.6499 14.0947C99.4053 16.1567 101.189 18.1926 102.944 20.2546V18.5841C97.2319 11.9544 90.3495 3.91518 87.9253 1.09624H94.0275L102.972 11.4846V9.81407C99.7118 6.02939 96.8418 2.68843 95.4765 1.07015H101.579L103 2.71454V1.04405L102.387 0.339298C102.22 0.130487 101.941 0 101.662 0H60.8971V1.14846H60.8135Z" fill="url(#paint14_linear_3217_2)" fill-opacity="0.4"/>
<path fill-rule="evenodd" clip-rule="evenodd" d="M50.1685 39.5425C44.2892 39.5425 39.5244 44.0058 39.5244 49.5132C39.5244 55.0205 44.2892 59.4839 50.1685 59.4839C56.0479 59.4839 60.8126 55.0205 60.8126 49.5132C60.8126 44.0319 56.0479 39.5425 50.1685 39.5425Z" fill="url(#paint15_linear_3217_2)" fill-opacity="0.4"/>
</g>
</g>
<path d="M25 43.4438C25 46.3474 27.3818 48.9818 31.2176 48.9818C34.2039 48.9818 36.0187 47.4748 36.8692 46.0826C36.8721 46.7023 37.1202 47.2957 37.5593 47.7331C37.9983 48.1705 38.5926 48.4164 39.2124 48.4169H41.8788C41.9291 48.4145 41.9779 48.3993 42.0207 48.3729C42.0636 48.3465 42.099 48.3096 42.1237 48.2658C42.146 48.2203 42.1543 48.1692 42.1477 48.1189C42.141 48.0687 42.1196 48.0215 42.0862 47.9834C41.5192 47.6524 40.9146 46.9651 40.9146 45.4791V36.3525C40.9135 32.6976 38.759 29.4983 33.1084 29.4983C28.7233 29.4983 25.8881 32.1537 25.4159 35.204C25.4048 35.2823 25.4241 35.3618 25.4699 35.4263C25.5157 35.4907 25.5844 35.5351 25.6619 35.5504C26.3613 35.7126 28.2699 36.1451 29.0443 36.3227C29.1291 36.3404 29.2174 36.3241 29.2903 36.2774C29.3551 36.2244 29.4015 36.1522 29.4227 36.0712C29.7062 34.38 30.9727 33.0771 33.146 33.0771C35.5652 33.0771 36.6045 34.3226 36.6045 35.8693C36.6045 36.5091 36.3209 37.0386 35.263 37.1876L30.538 37.9069C27.4193 38.3525 25 40.1629 25 43.4438ZM70.6048 29.4983C65.1429 29.4983 61.0986 33.6033 61.0986 39.2219C61.0986 44.879 65.1429 48.984 70.6048 48.984C76.1053 48.984 80.1496 44.879 80.1496 39.2219C80.1496 33.6011 76.1053 29.4983 70.6048 29.4983ZM60.6639 48.4169C60.726 48.4189 60.7868 48.3986 60.8353 48.3598C60.8838 48.321 60.9169 48.2661 60.9287 48.2051C60.9398 48.1453 60.931 48.0835 60.9037 48.0292C60.8764 47.9748 60.8321 47.9308 60.7776 47.904C60.7588 47.8929 60.7202 47.8841 60.7014 47.8742C60.06 47.5835 59.5159 47.1144 59.1338 46.5228C58.7518 45.9313 58.548 45.2423 58.5469 44.5381V21.3711C58.548 21.3224 58.5387 21.274 58.5197 21.2291C58.5007 21.1842 58.4724 21.1439 58.4366 21.1108C58.4062 21.0757 58.3686 21.0476 58.3263 21.0286C58.284 21.0095 58.2381 20.9999 58.1917 21.0005H53.8032C53.7536 20.9978 53.7041 21.0064 53.6582 21.0255C53.6124 21.0446 53.5714 21.0737 53.5384 21.1108C53.5029 21.1441 53.4747 21.1844 53.4557 21.2293C53.4367 21.2741 53.4273 21.3224 53.4281 21.3711V44.7257C53.4277 45.2099 53.5227 45.6895 53.7077 46.137C53.8928 46.5845 54.1642 46.9911 54.5065 47.3336C54.8488 47.6762 55.2553 47.9478 55.7027 48.1332C56.1501 48.3185 56.6296 48.4138 57.1139 48.4136L60.6639 48.4169ZM50.9492 48.4169C51.0089 48.413 51.0656 48.3892 51.1103 48.3494C51.1549 48.3097 51.1851 48.2561 51.196 48.1973C51.2069 48.1385 51.1979 48.0777 51.1703 48.0246C51.1428 47.9715 51.0984 47.929 51.0441 47.904C51.0254 47.8929 51.0055 47.8841 50.9867 47.8742C50.3426 47.5869 49.7957 47.1187 49.4126 46.5265C49.0295 45.9342 48.8267 45.2435 48.8289 44.5381V28.1293C48.8265 28.0257 48.8037 27.9237 48.7616 27.829C48.7196 27.7343 48.6592 27.6489 48.584 27.5777C48.513 27.5032 48.4273 27.4442 48.3324 27.4045C48.2374 27.3648 48.1353 27.3453 48.0324 27.3471H46.5122C46.4302 27.3479 46.3496 27.3258 46.2794 27.2833C46.2093 27.2408 46.1524 27.1797 46.1151 27.1066C46.0867 27.0327 46.077 26.9529 46.087 26.8743C46.097 26.7958 46.1264 26.721 46.1724 26.6565C47.1741 25.4077 49.29 22.7954 50.2355 21.6105C50.283 21.5578 50.3124 21.4911 50.3191 21.4204C50.3259 21.3496 50.3097 21.2786 50.273 21.2178C50.2451 21.1558 50.2001 21.1031 50.1432 21.066C50.0863 21.0288 50.0199 21.0088 49.9519 21.0082H44.0697C43.9708 21.0106 43.8763 21.05 43.805 21.1185C43.7402 21.1906 43.7014 21.2822 43.6947 21.3789V44.7334C43.6987 45.7119 44.0904 46.649 44.7839 47.3394C45.4774 48.0298 46.4162 48.4172 47.3948 48.4169H50.9492ZM32.0494 45.5553C30.3108 45.5553 29.3653 44.4245 29.3653 43.179C29.3653 41.6709 30.4619 40.9175 31.8232 40.6902L36.6045 39.9786V40.8082C36.6045 44.3914 34.5062 45.5553 32.0494 45.5553ZM70.6048 45.0655C67.9207 45.0655 65.4838 43.0279 65.4838 39.2185C65.4838 35.4092 67.9207 33.4489 70.6048 33.4489C73.3263 33.4489 75.7269 35.4081 75.7269 39.2185C75.7269 43.0676 73.3263 45.0655 70.6048 45.0655V45.0655Z" fill="#FBAE17"/>
<path d="M82.6855 48.8404V21.4229H86.3746V32.9589H86.5953C86.867 32.4796 87.1773 32.0233 87.523 31.5943C87.9832 31.0266 88.556 30.5604 89.2054 30.2252C89.9217 29.8347 90.8679 29.6394 92.0439 29.6394C93.5737 29.6394 94.939 30.0259 96.14 30.7989C97.3411 31.5718 98.2854 32.6868 98.973 34.1437C99.6592 35.5999 100.003 37.3522 100.003 39.4004C100.004 41.4487 99.6625 43.2031 98.9786 44.6638C98.2953 46.1244 97.3576 47.2474 96.1654 48.0329C94.9732 48.8184 93.6126 49.2111 92.0836 49.2111C90.9319 49.2111 89.992 49.0177 89.2639 48.6308C88.6053 48.3016 88.0219 47.8396 87.5506 47.2739C87.1968 46.8398 86.8791 46.3775 86.6008 45.8916H86.2919V48.8404H82.6855ZM86.3007 39.3629C86.3007 40.6956 86.4941 41.8639 86.881 42.8678C87.2678 43.8717 87.8271 44.6553 88.5589 45.2187C89.2944 45.782 90.1913 46.0637 91.2496 46.0637C92.3528 46.0637 93.274 45.7695 94.0131 45.1811C94.7522 44.5928 95.3138 43.7926 95.6977 42.7806C96.0949 41.6849 96.2893 40.5261 96.2713 39.3607C96.2892 38.2133 96.0989 37.0722 95.7098 35.9927C95.3355 34.9969 94.7761 34.211 94.0319 33.6352C93.2876 33.0593 92.3602 32.7714 91.2496 32.7714C90.1795 32.7714 89.2764 33.0472 88.5402 33.5988C87.804 34.1504 87.2469 34.92 86.8688 35.9077C86.4908 36.8947 86.3014 38.0465 86.3007 39.3629V39.3629Z" fill="white"/>
<path d="M108.259 49.261C107.137 49.2772 106.025 49.0475 105.001 48.588C104.063 48.1686 103.265 47.49 102.7 46.6321C102.136 45.776 101.854 44.7272 101.854 43.4858C101.854 42.4157 102.059 41.5353 102.471 40.8448C102.874 40.1614 103.448 39.5954 104.137 39.2032C104.87 38.7872 105.66 38.4795 106.481 38.2898C107.352 38.0832 108.234 37.9266 109.122 37.8209C110.257 37.6893 111.179 37.5789 111.887 37.49C112.595 37.401 113.11 37.259 113.431 37.0641C113.753 36.867 113.913 36.546 113.912 36.101V36.015C113.912 34.9375 113.61 34.1024 113.006 33.5096C112.401 32.9169 111.502 32.6227 110.309 32.6271C109.067 32.6271 108.09 32.9007 107.378 33.4479C106.666 33.995 106.175 34.6018 105.903 35.2681L102.436 34.4782C102.848 33.3265 103.451 32.3947 104.244 31.6828C105.036 30.9719 105.973 30.4415 106.99 30.1284C108.049 29.7997 109.151 29.6352 110.26 29.6408C111.071 29.6467 111.879 29.7354 112.672 29.9055C113.522 30.082 114.333 30.4101 115.066 30.8741C115.838 31.3739 116.468 32.0643 116.896 32.8786C117.373 33.7465 117.611 34.8713 117.611 36.2533V48.8407H114.008V46.2493H113.86C113.584 46.7759 113.221 47.2516 112.786 47.6559C112.253 48.1529 111.629 48.5427 110.948 48.8043C110.2 49.1088 109.304 49.261 108.259 49.261ZM109.061 46.2989C110.081 46.2989 110.956 46.0974 111.683 45.6944C112.373 45.3278 112.949 44.7791 113.349 44.108C113.727 43.4716 113.925 42.7445 113.922 42.0042V39.5606C113.791 39.693 113.538 39.8144 113.163 39.9247C112.744 40.0462 112.318 40.1413 111.887 40.2093C111.41 40.2873 110.945 40.3571 110.493 40.4189L109.357 40.5734C108.69 40.6523 108.034 40.8055 107.401 41.0301C106.861 41.211 106.377 41.5274 105.994 41.949C105.644 42.3484 105.469 42.8768 105.47 43.5343C105.47 44.4478 105.807 45.1369 106.481 45.6017C107.156 46.0665 108.016 46.2989 109.063 46.2989H109.061Z" fill="white"/>
<path d="M124.824 37.5871V48.8397H121.134V29.8858H124.675V32.9747H124.91C125.337 31.9811 126.053 31.1386 126.964 30.5565C127.898 29.9475 129.075 29.6431 130.494 29.6431C131.787 29.6431 132.918 29.9122 133.888 30.4506C134.869 31.0003 135.657 31.8383 136.146 32.8511C136.681 33.9124 136.949 35.2245 136.949 36.7873V48.8408H133.259V37.2286C133.259 35.8548 132.901 34.7792 132.186 34.0018C131.47 33.2244 130.487 32.8357 129.236 32.8357C128.442 32.8199 127.657 33.0099 126.959 33.3873C126.29 33.7647 125.746 34.3286 125.392 35.0101C125.013 35.7242 124.823 36.5832 124.824 37.5871Z" fill="white"/>
<path d="M140.504 48.8404V21.4229H144.193V48.8404H140.504ZM143.897 42.411L143.872 37.9067H144.514L152.066 29.8854H156.479L147.865 39.0176H147.285L143.897 42.411ZM152.474 48.8404L145.689 39.8318L148.226 37.2536L157 48.8371L152.474 48.8404Z" fill="white"/>
<defs>
<linearGradient id="paint0_linear_3217_2" x1="313.016" y1="41.7383" x2="312.936" y2="92.9265" gradientUnits="userSpaceOnUse">
<stop stop-color="white"/>
<stop offset="1" stop-color="white" stop-opacity="0"/>
</linearGradient>
<linearGradient id="paint1_linear_3217_2" x1="296.016" y1="41.7383" x2="295.936" y2="92.9265" gradientUnits="userSpaceOnUse">
<stop stop-color="white"/>
<stop offset="1" stop-color="white" stop-opacity="0"/>
</linearGradient>
<linearGradient id="paint2_linear_3217_2" x1="309.673" y1="2.2343" x2="309.952" y2="64.3266" gradientUnits="userSpaceOnUse">
<stop stop-color="white"/>
<stop offset="1" stop-color="white" stop-opacity="0"/>
</linearGradient>
<linearGradient id="paint3_linear_3217_2" x1="292.673" y1="2.2343" x2="292.952" y2="64.3266" gradientUnits="userSpaceOnUse">
<stop stop-color="white"/>
<stop offset="1" stop-color="white" stop-opacity="0"/>
</linearGradient>
<linearGradient id="paint4_linear_3217_2" x1="329.287" y1="40.6888" x2="329.376" y2="91.1383" gradientUnits="userSpaceOnUse">
<stop stop-color="white"/>
<stop offset="1" stop-color="white" stop-opacity="0"/>
</linearGradient>
<linearGradient id="paint5_linear_3217_2" x1="326.299" y1="1.56808" x2="325.727" y2="69.9443" gradientUnits="userSpaceOnUse">
<stop stop-color="white"/>
<stop offset="1" stop-color="white" stop-opacity="0"/>
</linearGradient>
<linearGradient id="paint6_linear_3217_2" x1="346.548" y1="-2.73846" x2="346.322" y2="106.45" gradientUnits="userSpaceOnUse">
<stop stop-color="white"/>
<stop offset="1" stop-color="white" stop-opacity="0"/>
</linearGradient>
<linearGradient id="paint7_linear_3217_2" x1="29.3417" y1="44.6333" x2="29.3417" y2="54.4213" gradientUnits="userSpaceOnUse">
<stop stop-color="white"/>
<stop offset="1" stop-color="white" stop-opacity="0"/>
</linearGradient>
<linearGradient id="paint8_linear_3217_2" x1="29.118" y1="59.0415" x2="29.118" y2="79.009" gradientUnits="userSpaceOnUse">
<stop stop-color="white"/>
<stop offset="1" stop-color="white" stop-opacity="0"/>
</linearGradient>
<linearGradient id="paint9_linear_3217_2" x1="50.1685" y1="59.0415" x2="50.1685" y2="79.009" gradientUnits="userSpaceOnUse">
<stop stop-color="white"/>
<stop offset="1" stop-color="white" stop-opacity="0"/>
</linearGradient>
<linearGradient id="paint10_linear_3217_2" x1="-2.35464" y1="39.5425" x2="-2.35464" y2="79.0076" gradientUnits="userSpaceOnUse">
<stop stop-color="white"/>
<stop offset="1" stop-color="white" stop-opacity="0"/>
</linearGradient>
<linearGradient id="paint11_linear_3217_2" x1="81.8788" y1="39.5425" x2="81.8788" y2="79.0076" gradientUnits="userSpaceOnUse">
<stop stop-color="white"/>
<stop offset="1" stop-color="white" stop-opacity="0"/>
</linearGradient>
<linearGradient id="paint12_linear_3217_2" x1="-2.35464" y1="0.106445" x2="-2.35464" y2="39.5716" gradientUnits="userSpaceOnUse">
<stop stop-color="white"/>
<stop offset="1" stop-color="white" stop-opacity="0"/>
</linearGradient>
<linearGradient id="paint13_linear_3217_2" x1="42.4547" y1="0.106445" x2="42.4547" y2="39.5455" gradientUnits="userSpaceOnUse">
<stop stop-color="white"/>
<stop offset="1" stop-color="white" stop-opacity="0"/>
</linearGradient>
<linearGradient id="paint14_linear_3217_2" x1="81.9066" y1="0" x2="81.9066" y2="39.5434" gradientUnits="userSpaceOnUse">
<stop stop-color="white"/>
<stop offset="1" stop-color="white" stop-opacity="0"/>
</linearGradient>
<linearGradient id="paint15_linear_3217_2" x1="50.1685" y1="39.5425" x2="50.1685" y2="59.4839" gradientUnits="userSpaceOnUse">
<stop stop-color="white"/>
<stop offset="1" stop-color="white" stop-opacity="0"/>
</linearGradient>
</defs>
</svg>
