<svg width="24" height="24" viewBox="0 0 24 24" fill="none" xmlns="http://www.w3.org/2000/svg">
<path fill-rule="evenodd" clip-rule="evenodd" d="M15.7914 2.98493C15.3079 2.49493 14.5283 2.49493 14.0447 2.98493L5.84407 11.2949C5.4592 11.6849 5.4592 12.3149 5.84407 12.7049L14.0447 21.0149C14.5283 21.5049 15.3079 21.5049 15.7914 21.0149C16.275 20.5249 16.275 19.7349 15.7914 19.2449L8.6467 11.9949L15.8013 4.74493C16.275 4.26493 16.275 3.46493 15.7914 2.98493Z" fill="#A1A1A1"/>
<mask id="mask0_205_4187" style="mask-type:alpha" maskUnits="userSpaceOnUse" x="5" y="2" width="12" height="20">
<path fill-rule="evenodd" clip-rule="evenodd" d="M15.7914 2.98493C15.3079 2.49493 14.5283 2.49493 14.0447 2.98493L5.84407 11.2949C5.4592 11.6849 5.4592 12.3149 5.84407 12.7049L14.0447 21.0149C14.5283 21.5049 15.3079 21.5049 15.7914 21.0149C16.275 20.5249 16.275 19.7349 15.7914 19.2449L8.6467 11.9949L15.8013 4.74493C16.275 4.26493 16.275 3.46493 15.7914 2.98493Z" fill="white"/>
</mask>
<g mask="url(#mask0_205_4187)">
</g>
</svg>
